<svg id="visual" viewBox="0 0 900 600" width="900" height="600" xmlns="http://www.w3.org/2000/svg" xmlns:xlink="http://www.w3.org/1999/xlink" version="1.1"><g stroke-width="1" stroke-linejoin="bevel"><path d="M519 280L598 277L609 176Z" fill="#d37354" stroke="#d37354"></path><path d="M609 176L474 180L519 280Z" fill="#59375b" stroke="#59375b"></path><path d="M598 277L706 221L609 176Z" fill="#00101c" stroke="#00101c"></path><path d="M599 63L502 75L609 176Z" fill="#763e62" stroke="#763e62"></path><path d="M609 176L502 75L474 180Z" fill="#242640" stroke="#242640"></path><path d="M681 109L599 63L609 176Z" fill="#934664" stroke="#934664"></path><path d="M706 221L681 109L609 176Z" fill="#934664" stroke="#934664"></path><path d="M692 407L725 284L598 277Z" fill="#59375b" stroke="#59375b"></path><path d="M598 277L725 284L706 221Z" fill="#934664" stroke="#934664"></path><path d="M706 221L773 96L681 109Z" fill="#3d2f50" stroke="#3d2f50"></path><path d="M373 319L437 373L519 280Z" fill="#d37354" stroke="#d37354"></path><path d="M519 280L472 395L598 277Z" fill="#c3605c" stroke="#c3605c"></path><path d="M437 373L472 395L519 280Z" fill="#c3605c" stroke="#c3605c"></path><path d="M377 115L365 170L474 180Z" fill="#59375b" stroke="#59375b"></path><path d="M474 180L373 319L519 280Z" fill="#c3605c" stroke="#c3605c"></path><path d="M365 170L373 319L474 180Z" fill="#59375b" stroke="#59375b"></path><path d="M502 75L377 115L474 180Z" fill="#101c2e" stroke="#101c2e"></path><path d="M707 0L573 0L599 63Z" fill="#934664" stroke="#934664"></path><path d="M599 63L573 0L502 75Z" fill="#242640" stroke="#242640"></path><path d="M502 75L479 0L377 115Z" fill="#763e62" stroke="#763e62"></path><path d="M472 395L632 431L598 277Z" fill="#ad5162" stroke="#ad5162"></path><path d="M632 431L692 407L598 277Z" fill="#d37354" stroke="#d37354"></path><path d="M573 0L479 0L502 75Z" fill="#d37354" stroke="#d37354"></path><path d="M376 463L522 463L472 395Z" fill="#d37354" stroke="#d37354"></path><path d="M472 395L522 463L632 431Z" fill="#3d2f50" stroke="#3d2f50"></path><path d="M376 463L472 395L437 373Z" fill="#101c2e" stroke="#101c2e"></path><path d="M812 411L797 267L725 284Z" fill="#ad5162" stroke="#ad5162"></path><path d="M725 284L797 267L706 221Z" fill="#934664" stroke="#934664"></path><path d="M837 230L773 96L706 221Z" fill="#59375b" stroke="#59375b"></path><path d="M681 109L707 0L599 63Z" fill="#00101c" stroke="#00101c"></path><path d="M522 463L578 481L632 431Z" fill="#dd894c" stroke="#dd894c"></path><path d="M632 431L725 532L692 407Z" fill="#934664" stroke="#934664"></path><path d="M773 96L707 0L681 109Z" fill="#763e62" stroke="#763e62"></path><path d="M368 0L291 131L377 115Z" fill="#c3605c" stroke="#c3605c"></path><path d="M377 115L291 131L365 170Z" fill="#101c2e" stroke="#101c2e"></path><path d="M365 170L280 161L373 319Z" fill="#934664" stroke="#934664"></path><path d="M900 278L837 230L797 267Z" fill="#ad5162" stroke="#ad5162"></path><path d="M797 267L837 230L706 221Z" fill="#00101c" stroke="#00101c"></path><path d="M291 131L280 161L365 170Z" fill="#101c2e" stroke="#101c2e"></path><path d="M479 0L368 0L377 115Z" fill="#3d2f50" stroke="#3d2f50"></path><path d="M280 161L284 337L373 319Z" fill="#c3605c" stroke="#c3605c"></path><path d="M307 421L376 463L437 373Z" fill="#dd894c" stroke="#dd894c"></path><path d="M307 421L437 373L373 319Z" fill="#763e62" stroke="#763e62"></path><path d="M522 463L532 600L578 481Z" fill="#763e62" stroke="#763e62"></path><path d="M725 532L812 411L692 407Z" fill="#d37354" stroke="#d37354"></path><path d="M692 407L812 411L725 284Z" fill="#d37354" stroke="#d37354"></path><path d="M284 337L307 421L373 319Z" fill="#3d2f50" stroke="#3d2f50"></path><path d="M307 421L333 462L376 463Z" fill="#3d2f50" stroke="#3d2f50"></path><path d="M624 600L725 532L578 481Z" fill="#242640" stroke="#242640"></path><path d="M900 99L810 0L773 96Z" fill="#dd894c" stroke="#dd894c"></path><path d="M773 96L810 0L707 0Z" fill="#3d2f50" stroke="#3d2f50"></path><path d="M291 131L214 162L280 161Z" fill="#3d2f50" stroke="#3d2f50"></path><path d="M280 161L211 296L284 337Z" fill="#101c2e" stroke="#101c2e"></path><path d="M284 337L216 360L307 421Z" fill="#d37354" stroke="#d37354"></path><path d="M178 138L214 162L291 131Z" fill="#101c2e" stroke="#101c2e"></path><path d="M900 278L900 170L837 230Z" fill="#00101c" stroke="#00101c"></path><path d="M837 230L900 170L773 96Z" fill="#dd894c" stroke="#dd894c"></path><path d="M812 411L900 278L797 267Z" fill="#3d2f50" stroke="#3d2f50"></path><path d="M214 162L211 296L280 161Z" fill="#934664" stroke="#934664"></path><path d="M307 421L211 497L333 462Z" fill="#763e62" stroke="#763e62"></path><path d="M578 481L725 532L632 431Z" fill="#c3605c" stroke="#c3605c"></path><path d="M532 600L522 463L391 600Z" fill="#ad5162" stroke="#ad5162"></path><path d="M368 0L277 0L291 131Z" fill="#101c2e" stroke="#101c2e"></path><path d="M900 170L900 99L773 96Z" fill="#c3605c" stroke="#c3605c"></path><path d="M211 296L216 360L284 337Z" fill="#00101c" stroke="#00101c"></path><path d="M391 600L522 463L376 463Z" fill="#763e62" stroke="#763e62"></path><path d="M532 600L624 600L578 481Z" fill="#3d2f50" stroke="#3d2f50"></path><path d="M277 0L178 138L291 131Z" fill="#763e62" stroke="#763e62"></path><path d="M214 162L78 218L211 296Z" fill="#3d2f50" stroke="#3d2f50"></path><path d="M119 408L211 497L216 360Z" fill="#934664" stroke="#934664"></path><path d="M812 600L824 518L725 532Z" fill="#c3605c" stroke="#c3605c"></path><path d="M725 532L824 518L812 411Z" fill="#3d2f50" stroke="#3d2f50"></path><path d="M812 411L900 431L900 278Z" fill="#00101c" stroke="#00101c"></path><path d="M824 518L900 431L812 411Z" fill="#00101c" stroke="#00101c"></path><path d="M624 600L694 600L725 532Z" fill="#c3605c" stroke="#c3605c"></path><path d="M900 99L900 0L810 0Z" fill="#242640" stroke="#242640"></path><path d="M315 600L376 463L333 462Z" fill="#59375b" stroke="#59375b"></path><path d="M315 600L391 600L376 463Z" fill="#242640" stroke="#242640"></path><path d="M119 408L216 360L73 314Z" fill="#c3605c" stroke="#c3605c"></path><path d="M216 360L211 497L307 421Z" fill="#d37354" stroke="#d37354"></path><path d="M277 0L167 0L178 138Z" fill="#c3605c" stroke="#c3605c"></path><path d="M211 497L315 600L333 462Z" fill="#d37354" stroke="#d37354"></path><path d="M694 600L812 600L725 532Z" fill="#dd894c" stroke="#dd894c"></path><path d="M824 518L900 528L900 431Z" fill="#242640" stroke="#242640"></path><path d="M900 600L900 528L824 518Z" fill="#242640" stroke="#242640"></path><path d="M73 314L216 360L211 296Z" fill="#dd894c" stroke="#dd894c"></path><path d="M211 497L180 600L315 600Z" fill="#d37354" stroke="#d37354"></path><path d="M78 218L214 162L178 138Z" fill="#d37354" stroke="#d37354"></path><path d="M83 135L78 218L178 138Z" fill="#d37354" stroke="#d37354"></path><path d="M167 0L83 135L178 138Z" fill="#934664" stroke="#934664"></path><path d="M78 218L73 314L211 296Z" fill="#763e62" stroke="#763e62"></path><path d="M812 600L900 600L824 518Z" fill="#101c2e" stroke="#101c2e"></path><path d="M83 135L0 213L78 218Z" fill="#934664" stroke="#934664"></path><path d="M78 218L0 213L73 314Z" fill="#3d2f50" stroke="#3d2f50"></path><path d="M167 0L81 0L83 135Z" fill="#00101c" stroke="#00101c"></path><path d="M0 410L96 475L119 408Z" fill="#c3605c" stroke="#c3605c"></path><path d="M119 408L96 475L211 497Z" fill="#c3605c" stroke="#c3605c"></path><path d="M122 600L180 600L211 497Z" fill="#934664" stroke="#934664"></path><path d="M0 111L0 213L83 135Z" fill="#d37354" stroke="#d37354"></path><path d="M73 314L0 410L119 408Z" fill="#3d2f50" stroke="#3d2f50"></path><path d="M81 0L0 111L83 135Z" fill="#763e62" stroke="#763e62"></path><path d="M0 213L0 338L73 314Z" fill="#ad5162" stroke="#ad5162"></path><path d="M96 475L122 600L211 497Z" fill="#59375b" stroke="#59375b"></path><path d="M0 600L122 600L96 475Z" fill="#934664" stroke="#934664"></path><path d="M0 338L0 410L73 314Z" fill="#ad5162" stroke="#ad5162"></path><path d="M81 0L0 0L0 111Z" fill="#dd894c" stroke="#dd894c"></path><path d="M0 410L0 471L96 475Z" fill="#d37354" stroke="#d37354"></path><path d="M0 471L0 600L96 475Z" fill="#ad5162" stroke="#ad5162"></path></g></svg>